<svg width="16" height="16" viewBox="0 0 16 16" fill="none" xmlns="http://www.w3.org/2000/svg">
<path d="M4.36912 2.5641C4.05486 3.78096 2.76186 3.92778 0.572505 3.64103C0.543561 3.63689 0.531378 3.63019 0.512241 3.61538C0.486862 3.90813 0.430587 4.09531 0.271186 4.46154C0.123794 4.94368 0.0999948 5.213 0.120527 5.69231C0.179914 6.53568 0.38392 7.02146 0.873823 7.89744C0.902122 8.53002 0.617917 8.8101 0 9.28205C0.299091 9.31426 0.442406 9.28245 0.662901 9.15385C0.307412 9.96631 0.181873 10.4368 0.241055 11.3333C0.407112 12.2142 0.656791 12.6209 1.35593 13.2051C2.67663 13.9144 3.39294 13.9976 4.61017 13.359C4.77158 13.4007 4.82824 13.4616 4.91149 13.5897C4.94446 13.7556 4.77171 13.8883 4.46852 14.1213L4.45951 14.1282C4.58888 15.1447 4.7993 15.5386 5.42373 15.9231C6.1605 15.6455 6.5192 15.4067 7.02072 14.7692C7.37645 14.23 7.45261 13.8164 7.47269 12.9744C7.50104 12.2913 7.48472 11.935 7.35217 11.3846C7.01073 10.6732 6.68641 10.3312 5.99623 9.76923C5.27484 9.27012 4.94806 8.94646 4.51978 8.28205C4.26306 7.75121 4.21607 7.41505 4.24859 6.76923C4.37254 6.22057 4.53218 5.96304 4.97175 5.58974C5.5193 5.17435 5.88871 5.00742 6.74953 4.92308C7.98589 4.92975 8.62784 5.12441 9.67232 5.84615C10.0833 6.14661 10.2795 6.37379 10.516 6.97436C10.6174 7.36649 10.6105 7.60286 10.3955 8.07692C10.256 8.33884 10.1422 8.44219 9.76271 8.41026C9.39674 8.27182 9.25022 8.12193 9.09981 7.71795L9.25047 7.69231C9.3409 7.61076 9.37977 7.54798 9.43126 7.41026C9.54367 7.00992 9.41071 6.7912 8.85876 6.41026C8.42757 6.13567 8.13273 6.04168 7.47269 6.02564C6.93937 6.04645 6.67428 6.08935 6.32768 6.28205C5.69535 6.67979 5.3881 6.93512 5.3936 7.76923C5.48897 8.35 5.7909 8.69329 6.7194 9.33333C7.10794 9.55092 7.31709 9.71114 7.68362 10.0256C8.22007 9.66017 8.55896 9.49321 9.25047 9.28205C9.65747 9.18775 9.89714 9.07579 10.3653 8.66667C10.9222 8.02526 11.0785 7.62844 10.9379 6.82051C10.6224 5.90034 10.3308 5.50602 9.55179 5.07692C9.27379 5.04578 9.13041 5.00853 8.91902 4.87179C8.80998 4.7258 8.76887 4.64133 8.91902 4.46154C9.2132 4.23688 9.37813 4.2438 9.67232 4.46154C9.74908 4.61563 9.74623 4.70519 9.64218 4.87179C10.9706 5.49027 11.4777 6.50666 11.2894 7.69231C11.245 8.32551 10.8036 8.92021 9.9435 9.61539C8.18969 10.7867 7.81677 11.7061 8.13559 13.7692C8.54149 15.0274 9.03711 15.4616 10.1544 16C10.8344 15.4578 11.19 15.1357 11.209 14.1282C11.0018 13.9419 10.941 13.856 10.8776 13.7179C10.9187 13.5516 10.9732 13.4732 11.1789 13.3846C13.5648 14.0286 14.5401 13.6511 15.548 11.4872C15.853 11.2039 15.9447 10.9417 16 10.3333C14.5415 10.0572 13.9879 9.74781 14.8249 8.12821C15.1511 7.26234 15.181 6.56253 15.1563 5.20513C15.2724 4.60565 15.2753 4.26349 15.1563 3.64103C13.475 3.81938 12.636 3.74283 11.6008 2.82051C11.1375 1.80892 10.5161 1.21601 9.16213 0.538462C8.73487 0.382297 8.36034 0.202879 7.98493 0C7.28863 0.352321 6.69777 0.592639 6.20716 0.790129C5.17865 1.35059 4.737 1.91387 4.6403 2.82051L4.36912 2.5641Z" fill="url(#paint0_linear_1_7)"/>
<defs>
<linearGradient id="paint0_linear_1_7" x1="0.6629" y1="3.71795" x2="11.8455" y2="15.3113" gradientUnits="userSpaceOnUse">
<stop stop-color="#6E38B2"/>
<stop offset="0.104167" stop-color="#A946C7"/>
<stop offset="0.255208" stop-color="#D94BD3"/>
<stop offset="0.395833" stop-color="#E04CD6"/>
<stop offset="0.578125" stop-color="#B847CD"/>
<stop offset="0.723958" stop-color="#7935AE"/>
<stop offset="0.8" stop-color="#6F39B3"/>
<stop offset="1" stop-color="#6E38B2"/>
</linearGradient>
</defs>
</svg>
